HIERARCHY
ROOT mixamorig:Hips
{
	OFFSET 0.000000 3.528733 0.000000
	CHANNELS 6 Xposition Yposition Zposition Xrotation Yrotation Zrotation
	JOINT mixamorig:Spine
	{
		OFFSET 0.000000 0.284700 -0.015200
		CHANNELS 3 Xrotation Yrotation Zrotation
		JOINT mixamorig:Spine1
		{
			OFFSET 0.000000 0.332125 -0.017771
			CHANNELS 3 Xrotation Yrotation Zrotation
			JOINT mixamorig:Spine2
			{
				OFFSET 0.000000 0.379557 -0.020309
				CHANNELS 3 Xrotation Yrotation Zrotation
				JOINT mixamorig:Neck
				{
					OFFSET 0.000000 0.426989 -0.022847
					CHANNELS 3 Xrotation Yrotation Zrotation
					JOINT mixamorig:Head
					{
						OFFSET 0.000000 0.288600 0.098000
						CHANNELS 3 Xrotation Yrotation Zrotation
						JOINT mixamorig:HeadTop_End
						{
							OFFSET 0.000000 0.712700 0.242000
							CHANNELS 3 Xrotation Yrotation Zrotation
							End Site
							{
								OFFSET 0.000000 0.752666 0.000000
							}
						}
					}
				}
				JOINT mixamorig:LeftShoulder
				{
					OFFSET 0.202600 0.346984 -0.022672
					CHANNELS 3 Xrotation Yrotation Zrotation
					JOINT mixamorig:LeftArm
					{
						OFFSET 0.427337 -0.109325 0.000307
						CHANNELS 3 Xrotation Yrotation Zrotation
						JOINT mixamorig:LeftForeArm
						{
							OFFSET 0.849600 0.000000 0.000000
							CHANNELS 3 Xrotation Yrotation Zrotation
							JOINT mixamorig:LeftHand
							{
								OFFSET 0.753900 0.000000 0.000000
								CHANNELS 3 Xrotation Yrotation Zrotation
								JOINT mixamorig:LeftHandThumb1
								{
									OFFSET 0.136012 -0.086473 0.045448
									CHANNELS 3 Xrotation Yrotation Zrotation
									JOINT mixamorig:LeftHandThumb2
									{
										OFFSET 0.103772 -0.059913 0.059913
										CHANNELS 3 Xrotation Yrotation Zrotation
										JOINT mixamorig:LeftHandThumb3
										{
											OFFSET 0.095779 -0.055298 0.055298
											CHANNELS 3 Xrotation Yrotation Zrotation
											JOINT mixamorig:LeftHandThumb4
											{
												OFFSET 0.073275 -0.042305 0.042305
												CHANNELS 3 Xrotation Yrotation Zrotation
												End Site
												{
													OFFSET 0.065698 -0.038445 0.056164
												}
											}
										}
									}
								}
								JOINT mixamorig:LeftHandIndex1
								{
									OFFSET 0.449965 -0.020370 0.085418
									CHANNELS 3 Xrotation Yrotation Zrotation
									JOINT mixamorig:LeftHandIndex2
									{
										OFFSET 0.102424 0.000000 -0.000000
										CHANNELS 3 Xrotation Yrotation Zrotation
										JOINT mixamorig:LeftHandIndex3
										{
											OFFSET 0.096306 0.000000 -0.000000
											CHANNELS 3 Xrotation Yrotation Zrotation
											JOINT mixamorig:LeftHandIndex4
											{
												OFFSET 0.078408 0.000000 -0.000000
												CHANNELS 3 Xrotation Yrotation Zrotation
												End Site
												{
													OFFSET 0.078400 -0.000010 -0.001100
												}
											}
										}
									}
								}
								JOINT mixamorig:LeftHandMiddle1
								{
									OFFSET 0.430485 0.000000 0.000000
									CHANNELS 3 Xrotation Yrotation Zrotation
									JOINT mixamorig:LeftHandMiddle2
									{
										OFFSET 0.112203 0.000000 0.000000
										CHANNELS 3 Xrotation Yrotation Zrotation
										JOINT mixamorig:LeftHandMiddle3
										{
											OFFSET 0.108209 0.000000 0.000000
											CHANNELS 3 Xrotation Yrotation Zrotation
											JOINT mixamorig:LeftHandMiddle4
											{
												OFFSET 0.087466 0.000000 0.000000
												CHANNELS 3 Xrotation Yrotation Zrotation
												End Site
												{
													OFFSET 0.087400 -0.000057 -0.003400
												}
											}
										}
									}
								}
								JOINT mixamorig:LeftHandRing1
								{
									OFFSET 0.364574 -0.002440 -0.092011
									CHANNELS 3 Xrotation Yrotation Zrotation
									JOINT mixamorig:LeftHandRing2
									{
										OFFSET 0.114832 0.000000 0.000000
										CHANNELS 3 Xrotation Yrotation Zrotation
										JOINT mixamorig:LeftHandRing3
										{
											OFFSET 0.104409 0.000000 0.000000
											CHANNELS 3 Xrotation Yrotation Zrotation
											JOINT mixamorig:LeftHandRing4
											{
												OFFSET 0.080424 0.000000 0.000000
												CHANNELS 3 Xrotation Yrotation Zrotation
												End Site
												{
													OFFSET 0.080200 -0.000053 -0.006000
												}
											}
										}
									}
								}
								JOINT mixamorig:LeftHandPinky1
								{
									OFFSET 0.312269 -0.016255 -0.171399
									CHANNELS 3 Xrotation Yrotation Zrotation
									JOINT mixamorig:LeftHandPinky2
									{
										OFFSET 0.087028 0.000000 0.000000
										CHANNELS 3 Xrotation Yrotation Zrotation
										JOINT mixamorig:LeftHandPinky3
										{
											OFFSET 0.073733 0.000000 0.000000
											CHANNELS 3 Xrotation Yrotation Zrotation
											JOINT mixamorig:LeftHandPinky4
											{
												OFFSET 0.056250 0.000000 0.000000
												CHANNELS 3 Xrotation Yrotation Zrotation
												End Site
												{
													OFFSET 0.056100 -0.000056 -0.004100
												}
											}
										}
									}
								}
							}
						}
					}
				}
				JOINT mixamorig:RightShoulder
				{
					OFFSET -0.202600 0.346968 -0.022971
					CHANNELS 3 Xrotation Yrotation Zrotation
					JOINT mixamorig:RightArm
					{
						OFFSET -0.427342 -0.109309 -0.000307
						CHANNELS 3 Xrotation Yrotation Zrotation
						JOINT mixamorig:RightForeArm
						{
							OFFSET -0.849600 0.000000 -0.000000
							CHANNELS 3 Xrotation Yrotation Zrotation
							JOINT mixamorig:RightHand
							{
								OFFSET -0.753900 0.000000 -0.000000
								CHANNELS 3 Xrotation Yrotation Zrotation
								JOINT mixamorig:RightHandThumb1
								{
									OFFSET -0.139217 -0.077736 0.046135
									CHANNELS 3 Xrotation Yrotation Zrotation
									JOINT mixamorig:RightHandThumb2
									{
										OFFSET -0.102889 -0.059403 0.059403
										CHANNELS 3 Xrotation Yrotation Zrotation
										JOINT mixamorig:RightHandThumb3
										{
											OFFSET -0.097122 -0.056073 0.056073
											CHANNELS 3 Xrotation Yrotation Zrotation
											JOINT mixamorig:RightHandThumb4
											{
												OFFSET -0.076714 -0.044291 0.044291
												CHANNELS 3 Xrotation Yrotation Zrotation
												End Site
												{
													OFFSET -0.072157 -0.042014 0.053259
												}
											}
										}
									}
								}
								JOINT mixamorig:RightHandIndex1
								{
									OFFSET -0.450325 -0.003448 0.076701
									CHANNELS 3 Xrotation Yrotation Zrotation
									JOINT mixamorig:RightHandIndex2
									{
										OFFSET -0.104343 0.000000 -0.000000
										CHANNELS 3 Xrotation Yrotation Zrotation
										JOINT mixamorig:RightHandIndex3
										{
											OFFSET -0.097003 0.000000 -0.000000
											CHANNELS 3 Xrotation Yrotation Zrotation
											JOINT mixamorig:RightHandIndex4
											{
												OFFSET -0.081630 0.000000 -0.000000
												CHANNELS 3 Xrotation Yrotation Zrotation
												End Site
												{
													OFFSET -0.081600 -0.000082 -0.002198
												}
											}
										}
									}
								}
								JOINT mixamorig:RightHandMiddle1
								{
									OFFSET -0.397234 0.000000 -0.000000
									CHANNELS 3 Xrotation Yrotation Zrotation
									JOINT mixamorig:RightHandMiddle2
									{
										OFFSET -0.115313 0.000000 -0.000000
										CHANNELS 3 Xrotation Yrotation Zrotation
										JOINT mixamorig:RightHandMiddle3
										{
											OFFSET -0.121324 0.000000 -0.000000
											CHANNELS 3 Xrotation Yrotation Zrotation
											JOINT mixamorig:RightHandMiddle4
											{
												OFFSET -0.103502 0.000000 0.000000
												CHANNELS 3 Xrotation Yrotation Zrotation
												End Site
												{
													OFFSET -0.103400 -0.000083 -0.004599
												}
											}
										}
									}
								}
								JOINT mixamorig:RightHandRing1
								{
									OFFSET -0.356229 0.006227 -0.097026
									CHANNELS 3 Xrotation Yrotation Zrotation
									JOINT mixamorig:RightHandRing2
									{
										OFFSET -0.116123 0.000000 0.000000
										CHANNELS 3 Xrotation Yrotation Zrotation
										JOINT mixamorig:RightHandRing3
										{
											OFFSET -0.105608 0.000000 0.000000
											CHANNELS 3 Xrotation Yrotation Zrotation
											JOINT mixamorig:RightHandRing4
											{
												OFFSET -0.089388 0.000000 0.000000
												CHANNELS 3 Xrotation Yrotation Zrotation
												End Site
												{
													OFFSET -0.089200 -0.000198 -0.005797
												}
											}
										}
									}
								}
								JOINT mixamorig:RightHandPinky1
								{
									OFFSET -0.319258 -0.005155 -0.189362
									CHANNELS 3 Xrotation Yrotation Zrotation
									JOINT mixamorig:RightHandPinky2
									{
										OFFSET -0.084919 0.000000 0.000000
										CHANNELS 3 Xrotation Yrotation Zrotation
										JOINT mixamorig:RightHandPinky3
										{
											OFFSET -0.068357 0.000000 0.000000
											CHANNELS 3 Xrotation Yrotation Zrotation
											JOINT mixamorig:RightHandPinky4
											{
												OFFSET -0.053427 0.000000 0.000000
												CHANNELS 3 Xrotation Yrotation Zrotation
												End Site
												{
													OFFSET -0.053400 -0.000117 -0.001696
												}
											}
										}
									}
								}
							}
						}
					}
				}
			}
		}
	}
	JOINT mixamorig:LeftUpLeg
	{
		OFFSET 0.302300 -0.158000 -0.006800
		CHANNELS 3 Xrotation Yrotation Zrotation
		JOINT mixamorig:LeftLeg
		{
			OFFSET -0.021195 -1.512800 -0.072827
			CHANNELS 3 Xrotation Yrotation Zrotation
			JOINT mixamorig:LeftFoot
			{
				OFFSET 0.021196 -1.499076 -0.232845
				CHANNELS 3 Xrotation Yrotation Zrotation
				JOINT mixamorig:LeftToeBase
				{
					OFFSET 0.176214 -0.335644 0.384848
					CHANNELS 3 Xrotation Yrotation Zrotation
					JOINT mixamorig:LeftToe_End
					{
						OFFSET 0.078950 -0.008059 0.195507
						CHANNELS 3 Xrotation Yrotation Zrotation
						End Site
						{
							OFFSET 0.078950 -0.008059 0.195507
						}
					}
				}
			}
		}
	}
	JOINT mixamorig:RightUpLeg
	{
		OFFSET -0.302300 -0.158000 -0.006600
		CHANNELS 3 Xrotation Yrotation Zrotation
		JOINT mixamorig:RightLeg
		{
			OFFSET 0.021196 -1.512831 -0.074247
			CHANNELS 3 Xrotation Yrotation Zrotation
			JOINT mixamorig:RightFoot
			{
				OFFSET -0.021196 -1.499093 -0.231430
				CHANNELS 3 Xrotation Yrotation Zrotation
				JOINT mixamorig:RightToeBase
				{
					OFFSET -0.176206 -0.335620 0.376547
					CHANNELS 3 Xrotation Yrotation Zrotation
					JOINT mixamorig:RightToe_End
					{
						OFFSET -0.078935 -0.008056 0.196268
						CHANNELS 3 Xrotation Yrotation Zrotation
						End Site
						{
							OFFSET -0.078935 -0.008056 0.196268
						}
					}
				}
			}
		}
	}
}
MOTION
Frames: 4
Frame Time: 0.033333
0.003837 3.504672 0.005384 -3.753118 -5.217374 -3.771932 3.293580 1.537570 2.740252 1.146036 0.329156 1.552971 1.123711 0.356192 1.550933 5.622650 -0.077171 0.463897 -7.551134 1.374727 -0.084352 -0.000000 -0.000000 0.000000 1.046095 -17.446012 -12.316908 3.916135 -19.989297 -69.767486 0.000011 -1.453901 -0.000002 -33.228303 -1.359351 -6.190932 -0.666098 2.158571 4.837372 11.859651 25.414898 17.056632 -13.811966 3.541918 9.030661 -0.000001 0.000000 -0.000001 0.020442 -0.966555 -7.590925 0.267884 1.752973 -17.376532 0.057699 0.821040 -8.038820 -0.000001 0.000000 -0.000001 -0.077456 2.661820 -15.698700 0.268782 1.755777 -17.405221 0.300507 1.853956 -18.413075 -0.000000 0.000000 0.000000 0.137959 3.644581 -21.134834 0.386570 2.094654 -20.910459 0.283124 1.800898 -17.867589 0.000001 -0.000001 -0.000001 0.923030 5.558212 -27.126875 0.268803 1.755845 -17.405885 0.241886 1.667663 -16.505519 -0.000000 -0.000002 0.000001 1.189530 15.344126 14.707076 13.162738 27.550895 58.780956 -0.000001 6.689786 -0.000003 -20.174733 -0.523567 6.792856 -1.664549 -0.169108 -4.216950 12.708007 -29.838224 -16.127682 -15.551992 -3.555862 -12.703321 0.000000 -0.000003 -0.000003 0.037636 1.264476 6.828364 0.213849 -1.396486 17.412912 0.046095 -0.654319 8.059113 -0.000001 -0.000000 0.000003 -0.135904 -2.206394 14.998771 0.214480 -1.398410 17.437710 0.239783 -1.476581 18.447106 0.000001 0.000001 -0.000004 0.031306 -3.078203 20.463791 0.308424 -1.668284 20.948509 0.225816 -1.434044 17.897109 0.000000 0.000003 -0.000001 0.748301 -4.885963 26.472196 0.214432 -1.398295 17.436032 0.192922 -1.327912 16.532292 -0.000000 -0.000002 -0.000004 -14.797077 13.791922 11.550952 12.099441 2.084056 4.105502 5.332902 0.306439 -7.138501 -4.933150 0.000010 0.000007 -0.000000 -0.000002 0.000000 -3.337873 -10.476799 2.376019 7.343107 -9.653154 -3.258324 0.266820 -1.566092 2.950649 -7.273454 0.000025 0.000005 -0.000000 -0.000005 -0.000001 
0.013152 3.442502 -0.012591 -3.578575 -5.296082 -3.069736 5.577661 1.464679 2.386322 0.287349 0.290939 1.329329 0.267196 0.314548 1.324696 5.889522 0.155640 0.338504 -6.753613 2.019294 -0.138102 -0.000000 0.000000 0.000000 0.932459 -13.426010 -12.462968 3.015028 -19.636043 -68.634440 0.000013 -4.606269 0.000019 -25.205459 -4.725804 -4.270157 -0.397299 1.923949 4.080513 11.740541 25.323534 17.687673 -13.845854 4.009446 9.267640 -0.000001 -0.000005 -0.000003 -0.018060 -1.339436 -7.735836 0.306769 1.872637 -18.605469 0.072908 0.922285 -9.038196 0.000003 -0.000001 -0.000002 -0.076507 2.680115 -15.872975 0.306628 1.872193 -18.600979 0.330268 1.941011 -19.311803 -0.000000 -0.000001 0.000001 0.242626 3.920123 -21.290417 0.431283 2.208050 -22.101480 0.312108 1.888384 -18.767741 -0.000000 -0.000001 -0.000001 1.217186 6.125912 -27.253469 0.306638 1.872249 -18.601528 0.268743 1.755665 -17.404022 -0.000000 0.000001 0.000002 1.135640 11.823377 14.430110 11.200942 27.848788 59.083957 0.000003 7.856587 -0.000001 -15.747845 5.035586 5.695022 -1.566006 -0.105251 -3.674480 12.707980 -29.838221 -16.127675 -15.448013 -4.159620 -12.835913 -0.000001 0.000000 -0.000003 -0.050238 1.895936 7.880583 0.211108 -1.387681 17.299629 0.050689 -0.685968 8.451791 -0.000002 0.000000 -0.000001 -0.136417 -2.290515 15.989628 0.211707 -1.389631 17.324864 0.250019 -1.506895 18.839981 -0.000000 -0.000003 -0.000001 0.247982 -3.673032 21.425935 0.305158 -1.659676 20.835398 0.235752 -1.464461 18.289957 -0.000001 0.000003 -0.000001 1.363144 -6.065744 27.420477 0.211653 -1.389489 17.322748 0.202131 -1.358546 16.925108 0.000001 0.000001 -0.000004 -20.460605 12.582295 11.941532 22.623120 2.420669 4.048920 0.531589 0.627988 -7.172446 -4.978091 -0.000012 0.000001 0.000001 -0.000003 -0.000000 -11.139703 -10.842638 0.435326 21.404005 -7.627361 -3.605796 -6.066867 -3.417612 3.984228 -7.505413 0.000017 0.000004 0.000001 -0.000005 0.000000 
0.024418 3.379542 -0.047485 -3.084955 -5.634727 -2.189911 8.663192 1.276636 1.807717 -0.558726 0.250080 1.061255 -0.576563 0.267630 1.054418 6.130501 0.420866 0.247855 -6.130931 2.857836 -0.297979 0.000000 -0.000000 0.000000 0.839737 -9.009102 -12.439113 0.978815 -18.703326 -67.408360 -0.000003 -6.642939 0.000001 -12.204894 -8.975434 -1.170315 0.314652 1.283430 2.073658 11.429105 25.070433 19.365699 -13.940954 5.250726 9.906823 -0.000002 0.000000 -0.000002 -0.111912 -2.314953 -8.213641 0.422862 2.187234 -21.882137 0.122031 1.190718 -11.702321 0.000001 0.000001 0.000001 -0.073098 2.738530 -16.428883 0.419337 2.178390 -21.789126 0.416243 2.170671 -21.707828 0.000002 -0.000001 0.000000 0.531138 4.655200 -21.799531 0.561962 2.505659 -25.278658 0.396003 2.119158 -21.167094 0.000001 -0.000001 -0.000003 2.019388 7.628281 -27.703495 0.419317 2.178417 -21.789342 0.347000 1.988048 -19.799450 -0.000003 -0.000002 0.000002 1.035132 8.062048 13.959137 5.475733 28.842502 61.013499 0.000000 4.334412 -0.000003 -8.174810 12.271540 3.022668 -1.297646 0.066569 -2.238016 12.707991 -29.838235 -16.127692 -15.178219 -5.764108 -13.183333 -0.000001 0.000000 -0.000003 -0.383804 3.466882 10.676085 0.208276 -1.378569 17.182251 0.063931 -0.769861 9.494516 0.000003 0.000000 -0.000001 -0.130133 -2.515651 18.621131 0.208917 -1.380611 17.208716 0.278176 -1.587021 19.883400 0.000002 -0.000000 -0.000003 0.888672 -5.154737 24.000412 0.301793 -1.650787 20.718609 0.263144 -1.544852 19.333272 0.000002 0.000001 0.000002 3.114830 -8.962270 30.022441 0.208833 -1.380362 17.205402 0.227602 -1.439576 17.968286 0.000000 -0.000002 0.000002 -25.087208 11.058821 11.577434 30.113741 3.997127 4.070415 -2.349219 0.623633 -7.910298 -4.858013 -0.000005 0.000003 0.000000 0.000000 0.000000 -17.253042 -10.326913 -1.002738 30.729100 -5.798801 -4.043249 -9.785234 -5.327938 4.263583 -7.634861 -0.000007 -0.000003 0.000001 0.000002 0.000000 
0.037629 3.308271 -0.103364 -1.663273 -6.152518 -0.923232 12.051742 0.954379 0.828988 -1.148693 0.216268 0.804989 -1.164247 0.225678 0.797017 6.273744 0.707195 0.141623 -5.959362 3.793411 -0.590416 0.000000 0.000000 -0.000000 0.767422 -4.955830 -12.029532 0.120246 -16.708376 -65.079354 0.000010 -12.709835 0.000023 5.143558 -11.357512 3.068324 1.332974 0.319947 -0.787376 10.997086 24.681749 21.772394 -14.090842 7.026485 10.847297 0.000000 -0.000001 0.000002 -0.242994 -3.681806 -9.089629 0.621385 2.627662 -26.605310 0.214652 1.572797 -15.541564 -0.000000 0.000001 -0.000002 -0.065546 2.842609 -17.417524 0.611325 2.607468 -26.384739 0.556819 2.494767 -25.161123 -0.000000 0.000000 -0.000001 0.977482 5.710850 -22.729416 0.779046 2.920934 -29.861758 0.533706 2.444983 -24.624304 0.000001 0.000002 -0.000001 3.237870 9.757245 -28.594595 0.611309 2.607443 -26.384421 0.476682 2.316638 -23.251745 -0.000001 -0.000005 -0.000000 0.890232 4.661456 13.207547 4.325244 26.783089 60.075106 0.000006 12.782347 -0.000013 2.995732 12.779876 -2.080566 -0.896046 0.318864 -0.190523 12.708001 -29.838235 -16.127701 -14.807130 -8.066147 -13.669959 -0.000001 -0.000005 -0.000002 -1.093280 5.476589 14.693806 0.213376 -1.394927 17.392728 0.085587 -0.889622 10.988886 0.000003 0.000001 0.000001 -0.101075 -2.841705 22.392645 0.214068 -1.397109 17.420908 0.321074 -1.700934 21.378789 0.000001 0.000001 -0.000000 1.962945 -7.052959 27.738418 0.307887 -1.666863 20.929938 0.304957 -1.659163 20.828542 -0.000001 0.000001 0.000001 5.922221 -12.564317 33.954496 0.213918 -1.396731 17.415845 0.266674 -1.554844 19.463353 -0.000001 0.000003 -0.000002 -30.521394 9.021208 10.456814 36.753361 6.309120 4.044491 -4.325198 0.869673 -8.816024 -5.157529 0.000002 0.000004 -0.000000 0.000002 0.000000 -24.317311 -8.961158 -2.190788 39.126315 -4.381022 -4.588955 -12.589442 -7.345746 4.182251 -8.006701 -0.000010 -0.000001 0.000000 -0.000005 -0.000000 
